<svg width="39" height="35" viewBox="0 0 39 35" fill="none" xmlns="http://www.w3.org/2000/svg">
    <path d="M12.5 14.0556L19.5 20.9444L26.5 14.0556M5.5 2H33.5C34.4283 2 35.3185 2.3629 35.9749 3.00885C36.6313 3.65481 37 4.53092 37 5.44444V15.7778C37 20.3454 35.1563 24.7259 31.8744 27.9557C28.5925 31.1855 24.1413 33 19.5 33C17.2019 33 14.9262 32.5545 12.803 31.689C10.6798 30.8235 8.75066 29.555 7.12563 27.9557C3.84374 24.7259 2 20.3454 2 15.7778V5.44444C2 4.53092 2.36875 3.65481 3.02513 3.00885C3.6815 2.3629 4.57174 2 5.5 2Z" stroke="white" stroke-width="3" stroke-linecap="round" stroke-linejoin="round"/>
</svg>
