<svg width="37" height="37" viewBox="0 0 37 37" fill="none" xmlns="http://www.w3.org/2000/svg">
    <path d="M10.383 16.8499L17.0894 2C18.4234 2 19.7028 2.52151 20.646 3.44981C21.5893 4.37811 22.1192 5.63716 22.1192 6.94997V13.5499H31.6088C32.0949 13.5445 32.5763 13.6432 33.0198 13.839C33.4633 14.0349 33.8582 14.3233 34.1771 14.6843C34.4961 15.0453 34.7315 15.4702 34.867 15.9296C35.0026 16.389 35.035 16.8719 34.962 17.3449L32.6483 32.1948C32.5271 32.9817 32.1209 33.6989 31.5047 34.2144C30.8885 34.7299 30.1038 35.0088 29.2951 34.9998H10.383M10.383 16.8499V34.9998M10.383 16.8499H5.35321C4.46388 16.8499 3.61098 17.1976 2.98213 17.8164C2.35328 18.4353 2 19.2747 2 20.1499V31.6998C2 32.575 2.35328 33.4144 2.98213 34.0332C3.61098 34.6521 4.46388 34.9998 5.35321 34.9998H10.383" stroke="white" stroke-width="3" stroke-linecap="round" stroke-linejoin="round"/>
</svg>
